<svg width="40.000000" height="40.000000" viewBox="0 0 40 40" fill="none" xmlns="http://www.w3.org/2000/svg" xmlns:xlink="http://www.w3.org/1999/xlink">
	<desc>
			Created with Pixso.
	</desc>
	<defs/>
	<circle id="Ellipse 2" cx="20.000000" cy="20.000000" r="20.000000" fill="#85AA9F" fill-opacity="1.000000"/>
	<path id="Union" d="M20.4431 19C26.3871 14.517 26.6494 11.8 20.4431 7C14.1184 11.9025 14.9336 14.501 20.4431 19ZM7 20.5569C11.8 14.3506 14.517 14.6129 19 20.5569C14.501 26.0664 11.9025 26.8816 7 20.5569ZM22 20.5569C26.8 14.3506 29.517 14.6129 34 20.5569C29.501 26.0664 26.9025 26.8816 22 20.5569ZM20.4431 22C26.6494 26.8 26.3871 29.517 20.4431 34C14.9336 29.501 14.1184 26.9025 20.4431 22Z" clip-rule="evenodd" fill="#FCFCFC" fill-opacity="1.000000" fill-rule="evenodd"/>
</svg>
