<svg width="32" height="32" viewBox="0 0 32 32" fill="none" xmlns="http://www.w3.org/2000/svg">
<g clip-path="url(#clip0_126_2123)">
<path d="M16 32C24.8366 32 32 24.8366 32 16C32 7.16344 24.8366 0 16 0C7.16344 0 0 7.16344 0 16C0 24.8366 7.16344 32 16 32Z" fill="#F0F0F0"/>
<path d="M3.30709 6.25885C2.05028 7.89404 1.10259 9.77872 0.550781 11.8262H8.87441L3.30709 6.25885Z" fill="#0052B4"/>
<path d="M31.4485 11.8262C30.8967 9.77882 29.9489 7.89413 28.6922 6.25894L23.125 11.8262H31.4485Z" fill="#0052B4"/>
<path d="M0.550781 20.174C1.10266 22.2214 2.05034 24.106 3.30709 25.7412L8.87422 20.174H0.550781Z" fill="#0052B4"/>
<path d="M25.7411 3.30755C24.1059 2.05074 22.2213 1.10305 20.1738 0.551178V8.87474L25.7411 3.30755Z" fill="#0052B4"/>
<path d="M6.25879 28.6924C7.89398 29.9492 9.77866 30.8969 11.826 31.4488V23.1253L6.25879 28.6924Z" fill="#0052B4"/>
<path d="M11.826 0.551178C9.7786 1.10305 7.89391 2.05074 6.25879 3.30749L11.826 8.87468V0.551178Z" fill="#0052B4"/>
<path d="M20.1738 31.4488C22.2212 30.8969 24.1059 29.9492 25.741 28.6925L20.1738 23.1253V31.4488Z" fill="#0052B4"/>
<path d="M23.125 20.174L28.6922 25.7412C29.9489 24.1061 30.8967 22.2214 31.4485 20.174H23.125Z" fill="#0052B4"/>
<path d="M31.8646 13.9131H18.0871H18.087V0.135438C17.4038 0.0465 16.7073 0 16 0C15.2926 0 14.5962 0.0465 13.9131 0.135438V13.9129V13.913H0.135438C0.0465 14.5962 0 15.2927 0 16C0 16.7074 0.0465 17.4038 0.135438 18.0869H13.9129H13.913V31.8646C14.5962 31.9535 15.2926 32 16 32C16.7073 32 17.4038 31.9536 18.0869 31.8646V18.0871V18.087H31.8646C31.9535 17.4038 32 16.7074 32 16C32 15.2927 31.9535 14.5962 31.8646 13.9131Z" fill="#D80027"/>
<path d="M20.1738 20.174L27.3136 27.3138C27.642 26.9855 27.9552 26.6423 28.2541 26.2866L22.1415 20.174H20.1738V20.174Z" fill="#D80027"/>
<path d="M11.8263 20.174H11.8262L4.68652 27.3137C5.01477 27.6421 5.35796 27.9553 5.71371 28.2542L11.8263 22.1414V20.174Z" fill="#D80027"/>
<path d="M11.8263 11.8262V11.8261L4.68659 4.68625C4.35822 5.0145 4.04497 5.35769 3.74609 5.71344L9.85878 11.8261H11.8263V11.8262Z" fill="#D80027"/>
<path d="M20.1738 11.8262L27.3136 4.68632C26.9854 4.35794 26.6422 4.04469 26.2865 3.74588L20.1738 9.85857V11.8262Z" fill="#D80027"/>
</g>
<defs>
<clipPath id="clip0_126_2123">
<rect width="32" height="32" fill="white"/>
</clipPath>
</defs>
</svg>
